<mxfile host="Electron" agent="Mozilla/5.0 (Windows NT 10.0; Win64; x64) AppleWebKit/537.36 (KHTML, like Gecko) draw.io/25.0.2 Chrome/128.0.6613.186 Electron/32.2.5 Safari/537.36" version="25.0.2">
  <diagram id="C5RBs43oDa-KdzZeNtuy" name="Page-1">
    <mxGraphModel dx="1050" dy="717" grid="1" gridSize="10" guides="1" tooltips="1" connect="1" arrows="1" fold="1" page="1" pageScale="1" pageWidth="827" pageHeight="1169" math="0" shadow="0">
      <root>
        <mxCell id="WIyWlLk6GJQsqaUBKTNV-0" />
        <mxCell id="WIyWlLk6GJQsqaUBKTNV-1" parent="WIyWlLk6GJQsqaUBKTNV-0" />
        <mxCell id="y1GekjER23w9h6hjI59I-2" value="input: num1,num2" style="shape=parallelogram;perimeter=parallelogramPerimeter;whiteSpace=wrap;html=1;fixedSize=1;" parent="WIyWlLk6GJQsqaUBKTNV-1" vertex="1">
          <mxGeometry x="320" y="600" width="120" height="60" as="geometry" />
        </mxCell>
        <mxCell id="y1GekjER23w9h6hjI59I-3" value="num1&amp;gt;num2?" style="rhombus;whiteSpace=wrap;html=1;" parent="WIyWlLk6GJQsqaUBKTNV-1" vertex="1">
          <mxGeometry x="320" y="700" width="120" height="120" as="geometry" />
        </mxCell>
        <mxCell id="y1GekjER23w9h6hjI59I-4" value="" style="endArrow=classic;html=1;rounded=0;entryX=0.5;entryY=0;entryDx=0;entryDy=0;" parent="WIyWlLk6GJQsqaUBKTNV-1" source="y1GekjER23w9h6hjI59I-0" target="y1GekjER23w9h6hjI59I-2" edge="1">
          <mxGeometry width="50" height="50" relative="1" as="geometry">
            <mxPoint x="380" y="440" as="sourcePoint" />
            <mxPoint x="430" y="450" as="targetPoint" />
          </mxGeometry>
        </mxCell>
        <mxCell id="y1GekjER23w9h6hjI59I-6" value="" style="endArrow=classic;html=1;rounded=0;exitX=0.5;exitY=1;exitDx=0;exitDy=0;entryX=0.5;entryY=0;entryDx=0;entryDy=0;" parent="WIyWlLk6GJQsqaUBKTNV-1" target="y1GekjER23w9h6hjI59I-3" edge="1">
          <mxGeometry width="50" height="50" relative="1" as="geometry">
            <mxPoint x="380" y="660" as="sourcePoint" />
            <mxPoint x="550" y="650" as="targetPoint" />
          </mxGeometry>
        </mxCell>
        <mxCell id="y1GekjER23w9h6hjI59I-7" value="" style="endArrow=classic;html=1;rounded=0;exitX=1;exitY=1;exitDx=0;exitDy=0;entryX=0.5;entryY=0;entryDx=0;entryDy=0;" parent="WIyWlLk6GJQsqaUBKTNV-1" source="y1GekjER23w9h6hjI59I-3" edge="1">
          <mxGeometry width="50" height="50" relative="1" as="geometry">
            <mxPoint x="460" y="850" as="sourcePoint" />
            <mxPoint x="440" y="840" as="targetPoint" />
          </mxGeometry>
        </mxCell>
        <mxCell id="y1GekjER23w9h6hjI59I-8" value="" style="endArrow=classic;html=1;rounded=0;exitX=0;exitY=1;exitDx=0;exitDy=0;entryX=0.5;entryY=0;entryDx=0;entryDy=0;" parent="WIyWlLk6GJQsqaUBKTNV-1" source="y1GekjER23w9h6hjI59I-3" edge="1">
          <mxGeometry width="50" height="50" relative="1" as="geometry">
            <mxPoint x="230" y="880" as="sourcePoint" />
            <mxPoint x="325" y="840" as="targetPoint" />
          </mxGeometry>
        </mxCell>
        <mxCell id="y1GekjER23w9h6hjI59I-16" value="" style="endArrow=classic;html=1;rounded=0;exitX=0.35;exitY=1.014;exitDx=0;exitDy=0;exitPerimeter=0;entryX=1;entryY=0;entryDx=0;entryDy=0;" parent="WIyWlLk6GJQsqaUBKTNV-1" target="y1GekjER23w9h6hjI59I-17" edge="1">
          <mxGeometry width="50" height="50" relative="1" as="geometry">
            <mxPoint x="428" y="900.8399999999999" as="sourcePoint" />
            <mxPoint x="448" y="1030" as="targetPoint" />
            <Array as="points" />
          </mxGeometry>
        </mxCell>
        <mxCell id="y1GekjER23w9h6hjI59I-17" value="End" style="ellipse;whiteSpace=wrap;html=1;" parent="WIyWlLk6GJQsqaUBKTNV-1" vertex="1">
          <mxGeometry x="330" y="940" width="100" height="60" as="geometry" />
        </mxCell>
        <mxCell id="wM0Dum968OIEzKRvADb0-1" style="edgeStyle=orthogonalEdgeStyle;rounded=0;orthogonalLoop=1;jettySize=auto;html=1;exitX=0.5;exitY=0;exitDx=0;exitDy=0;entryX=0.5;entryY=0;entryDx=0;entryDy=0;" parent="WIyWlLk6GJQsqaUBKTNV-1" edge="1">
          <mxGeometry relative="1" as="geometry">
            <Array as="points" />
            <mxPoint x="380" y="380" as="sourcePoint" />
            <mxPoint x="380" y="380" as="targetPoint" />
          </mxGeometry>
        </mxCell>
        <mxCell id="KIZYcEx8a-FxY7OyTVWQ-1" value="" style="endArrow=classic;html=1;rounded=0;entryX=0;entryY=0;entryDx=0;entryDy=0;" parent="WIyWlLk6GJQsqaUBKTNV-1" target="y1GekjER23w9h6hjI59I-17" edge="1">
          <mxGeometry width="50" height="50" relative="1" as="geometry">
            <mxPoint x="310" y="900" as="sourcePoint" />
            <mxPoint x="440" y="940" as="targetPoint" />
            <Array as="points" />
          </mxGeometry>
        </mxCell>
        <mxCell id="KIZYcEx8a-FxY7OyTVWQ-2" value="NO" style="text;html=1;align=center;verticalAlign=middle;resizable=0;points=[];autosize=1;strokeColor=none;fillColor=none;" parent="WIyWlLk6GJQsqaUBKTNV-1" vertex="1">
          <mxGeometry x="430" y="790" width="40" height="30" as="geometry" />
        </mxCell>
        <mxCell id="KIZYcEx8a-FxY7OyTVWQ-4" value="YES" style="text;html=1;align=center;verticalAlign=middle;resizable=0;points=[];autosize=1;strokeColor=none;fillColor=none;" parent="WIyWlLk6GJQsqaUBKTNV-1" vertex="1">
          <mxGeometry x="285" y="790" width="50" height="30" as="geometry" />
        </mxCell>
        <mxCell id="y1GekjER23w9h6hjI59I-0" value="START" style="ellipse;whiteSpace=wrap;html=1;" parent="WIyWlLk6GJQsqaUBKTNV-1" vertex="1">
          <mxGeometry x="320" y="480" width="120" height="80" as="geometry" />
        </mxCell>
        <mxCell id="GMt02CV-LbLcrzYgmA2z-0" value="num2" style="strokeWidth=2;html=1;shape=mxgraph.flowchart.display;whiteSpace=wrap;" vertex="1" parent="WIyWlLk6GJQsqaUBKTNV-1">
          <mxGeometry x="260" y="840" width="100" height="60" as="geometry" />
        </mxCell>
        <mxCell id="GMt02CV-LbLcrzYgmA2z-1" value="num1" style="strokeWidth=2;html=1;shape=mxgraph.flowchart.display;whiteSpace=wrap;" vertex="1" parent="WIyWlLk6GJQsqaUBKTNV-1">
          <mxGeometry x="380" y="840" width="100" height="60" as="geometry" />
        </mxCell>
      </root>
    </mxGraphModel>
  </diagram>
</mxfile>
